<svg xmlns="http://www.w3.org/2000/svg" width="512" height="512" viewBox="0 0 80 80" fill="none"><defs><linearGradient id="silver" x1="17" y1="8" x2="47" y2="58" gradientUnits="userSpaceOnUse"><stop stop-color="#FAFAFC"/><stop offset=".45" stop-color="#D3D5DB"/><stop offset="1" stop-color="#858994"/></linearGradient><linearGradient id="base" x2="1" y2="1"><stop stop-color="#45474D"/><stop offset="1" stop-color="#1D1E23"/></linearGradient></defs><rect x="2" y="2" width="76" height="76" rx="22" fill="url(#base)" stroke="#ffffff" stroke-opacity=".24"/><g transform="translate(8 8)"><path d="M21 8h12L22 41a4 4 0 0 0 4 5h28l-9 10H16a7 7 0 0 1-7-9L21 8Z" fill="url(#silver)"/><path d="m30 37 20-13 5 13-13 8H27l3-8Z" fill="#F3F4F6"/><path d="m27 45 15-8h13l-13 8H27Z" fill="#A3A6AF"/><path d="M22 11 11 46a5 5 0 0 0 5 7h28" stroke="white" stroke-opacity=".5" stroke-width="1" stroke-linecap="round"/></g></svg>